<?xml version="1.0" encoding="UTF-8"?>
<svg xmlns="http://www.w3.org/2000/svg" viewBox="0 0 2085.59 3126.45">
  <defs>
    <style>
      .cls-1 {
        fill: #17576d;
      }

      .cls-1, .cls-2, .cls-3, .cls-4, .cls-5, .cls-6, .cls-7, .cls-8, .cls-9, .cls-10, .cls-11, .cls-12, .cls-13, .cls-14, .cls-15 {
        stroke-width: 0px;
      }

      .cls-2 {
        fill: #10485b;
      }

      .cls-3 {
        fill: #c8ccce;
      }

      .cls-4 {
        fill: #19ab6f;
      }

      .cls-5 {
        fill: #3d8296;
      }

      .cls-6 {
        fill: #458ba1;
      }

      .cls-7 {
        fill: #caced0;
      }

      .cls-8 {
        fill: #bdc5c9;
      }

      .cls-9 {
        fill: #fff;
      }

      .cls-10 {
        fill: #c8cbce;
      }

      .cls-11 {
        fill: #c8cccf;
      }

      .cls-12 {
        fill: #dce0e2;
      }

      .cls-13 {
        fill: #fdfdfd;
      }

      .cls-14 {
        fill: #fcfcfd;
      }

      .cls-15 {
        fill: #0c3e4c;
      }
    </style>
  </defs>
  <g id="Camada_2" data-name="Camada 2">
    <rect class="cls-12" x="310.1" y="830.49" width="1465.61" height="1465.61" rx="348.95" ry="348.95"/>
  </g>
  <g id="Camada_1" data-name="Camada 1">
    <rect class="cls-1" x="585.64" y="1505.09" width="768.52" height="500.94"/>
    <rect class="cls-1" x="1157.25" y="1397.2" width="431.14" height="586.5" transform="translate(129.36 -97.3) rotate(4.26)"/>
    <path class="cls-9" d="M2085.59,2.66c-392.78.03-785.57.06-1178.35.08-297.33.01-594.66.07-891.98-.26-10.79-.01-13.1,2.68-13.1,13.23.26,1030.16.23,2060.32.23,3090.48,0,6.72-.04,13.44-.06,20.16-.65-.46-2.21,1.07-2.14-1.06.09-2.83.02-5.66.02-8.49C.2,2081.22.21,1045.66,0,10.09,0,2.14,1.79.34,9.74.34c688.77.21,1377.53.19,2066.3.33,3.1,0,7.19-2.45,9.55,1.99Z"/>
    <path class="cls-8" d="M820.82,2295.63c-2.55-2.71-6.32-6.7-10.91-11.47-30.2-31.36-41.14-40.29-64.2-62.78-17.39-16.96-32.65-36.09-49.74-53.38-48.14-48.72-96.79-96.94-145.1-145.49-9.94-10-19.27-20.61-28.9-30.92-1.96-2.09-3.91-4.15-3.54-7.34,5.28-1.28,8.63,2.03,12.05,5.11,4.44,4,9.17,7.28,14.14,9.9,3.44,1.81,10.95,7.81,34.32,8.31,21.28.45,269.52,1.37,610.05,1.49,10.06-.07,20.12-.15,30.18-.22,5.43,28.36,15.16,49.92,22.79,63.94,5.31,9.75,28.05,49.27,75.57,80.76,43.18,28.61,91.09,39.77,142.06,36.54,54.96-3.48,103.12-23.61,143.36-62.45,32.89-31.75,53.35-70,63.55-113.9,11.15-48.03,5.44-95.02-14.25-139.78-14.66-33.33-36.55-61.93-65.18-84.95-3.84-3.09-8.27-5.93-6.31-12.1,2.29-4.06,3.95-8.28,4.07-13.02.98-36.31,4.7-72.46,6.87-108.7,2.63-43.97,5.34-87.95,8.72-131.86,2-25.99,2.83-52.06,5.48-78.01,1.76-17.24-3.16-33.6-10.4-49.17-3.06-6.59-3.34-13.25-3.35-20.5-.06-31.02,3.08-62.14-1.87-93.04-.76-8.16-2.82-15.92-6.56-23.29-1.71-3.37-3.77-7.02-.88-10.91,16.67,17.04,33.87,33.6,49.88,51.24,18.06,19.89,38.4,37.35,57.75,55.85,6.42,6.13,11.6,13.18,17.96,19.23,5.01,4.77,16.18,16.58,52.72,50.57,5.97,5.56,10.87,10.08,13.99,12.97-1.58,92.99-.37,168.69.98,220,2.99,112.89.18,177.15-.44,282.2-.38,64.24-13.33,125.63-45.34,182.08-48.66,85.81-121.88,139.14-216.81,163.77-61.86,16.05-112,13.3-130.45,12.32-102.78-5.43-293.96-5.55-562.28-2.99Z"/>
    <path class="cls-1" d="M1235.47,2013.08c-15.92-.37-28.76-.64-36.75-.8-210.75-4.25-524.22-.03-581.79-.04-9.18,0-18.39-.34-27.55.17-28.06,1.56-52.23-6.33-70.94-28.17-9.56-15.4-13.36-32.28-14.38-50.28-6.51-114.6-13.34-229.18-20.06-343.77-2.48-11.31,1.03-22.96-1.97-34.23v.09c-1.17-16.97-2.02-33.96-3-50.95-.98-17-2.22-33.98-3.35-50.97v.02c-1.58-8.51-1.74-17.02.09-25.52v.04c4.11-25.7,15.73-46.4,39.27-59.24,12.43-6.78,25.8-8.99,39.79-8.99,99.32.02,198.65.08,297.97-.04,15.51-.02,31.07,1.13,46.52-1.68,4.45-.81,9.2-.63,13.72.38,11.28,2.52,22.48-.38,33.66-.26,47.62.52,95.25-1.93,142.87.07,18.18,3.26,36.45,1.07,54.65.63,6.61-.16,13.31-1.21,20-1.21,120.39-.06,240.79-.07,361.18.05,6.51,0,13.58-1.69,19.14,3.67,1.65,6.86-4.32,7.15-7.61,6.81-29.47-3.01-57.72,8.22-87.42,6.12-30.5-2.15-61.24,2.28-91.62,5.83-13.66,1.6-27.23,2.95-40.94,3.63-12.09.59-13.56,2.28-14.04,14.25-.34,8.34-3.75,14.35-11.9,16.84-8.08,2.47-13.89,10.21-23.33,8.84.25,4.57,3.68,5.94,5.22,8.6,4.1,7.08,3.29,12.74-4.17,17.07-7.82,4.55-13.72,11.02-20.08,17.1-5.65,5.41-10.15,11.37-13.44,18.7-7.14,15.9-10.86,17.31-27.18,13.14-1.39-.36-2.77-.36-4.19-.36-17.18.06-22.74-7.51-17.51-23.79.53-1.66,1.65-3.14,1.5-5-4.08,4.97-5.72,17.8-1.81,24.38,4.97,8.36,3.51,15.51-1.98,22.48-2.99,3.8-4.24,7.97-4.52,12.71-.51,8.92-5.65,13.19-14.36,13.83-4.48.33-10.65-1.61-12.97,2.51-4.09,7.25-11.57,13-12.02,21.86-.43,8.42-4.72,11.05-12.2,11.07-9.3.03-17.92-.19-24.45-9.13-4.51-6.18-10.48-.53-15.1,1.77-12.79,6.36-22.62,16.57-32.34,26.76-2.2,2.31-4.19,4.91-6.99,6.43-8.43,4.56-15.69,8.82-11.51,21.11,2.13,6.26-5.04,10.62-11.96,8.44-3.42-1.08-5.22-2.8-11.27-11.53,1.34,11.9-3.72,18.88-11.24,24.14,1.66,2.51,3.52,1.86,5.16,1.54,6.83-1.35,13.7-2.94,16.17,6.47,2.28,8.68-2.21,17.77-10.43,20.74-8.54,3.08-16.57,1.24-24.71-4.42-.62,15.77-7.76,23.55-22.69,25.28-7.48.86-13.65,6.91-20.4,10.52-7.47,4-14.63,6.83-23.01,6.3-6.39-.4-11.66,1.52-16.19,6.2-4.17,4.3-8.97,7.79-14.42,10.62-7.76,4.03-11.69,12.83-12.51,19.78-2.26,19.01-11.68,29.48-30.2,32.41.92,5.89,5.53,6.28,9.24,7.96,11.29,5.12,12.74,15.71,2.97,23.26-9.57,7.4-20.28,8.94-30.61,2.24-7.53-4.88-16.08-4.97-24.09-7.45-5.37-1.67-7.71,1.81-8.89,6.47-3.77,14.89-14.26,23.78-27.4,29.96-9.85,4.63-15.55,15.44-12.28,25.59,2.68,8.31,1.68,15.48-5.51,20.87-6.99,5.24-13.51,2.58-19.19-2.45-8.44-7.47-25.89.34-26.2,16.48-.19,10.11-5.16,14.62-11.52,21.44-7.42,7.97-17.39,13.76-22.79,23.65-3.4,6.23-8.98,8.4-15.74,9.12-11.69,1.25-15.41,8.67-9.88,19.07.49.92,1.29,1.69,1.79,2.62,2.47,4.6,4.42,9.62-.97,13.15-4.74,3.11-8.94.39-11.74-3.73-2.88-4.24-6.99-5.78-11.64-6.44-2.8-.4-6.57-3.43-8.01,1.39-1.1,3.71,2.53,4.41,5.14,5.4.99.38,2,.75,2.88,1.33,5.51,3.63,8.23,7.86,1.96,14.72,2.47-.18,7.6-.55,14.03-1.04,256.87-19.54,441.56-62.81,510.28-16.65,6.15,4.13,21.41,15.72,43.16,16.71,35.76,1.64,60.48-26.67,65.89-20.63,3.7,4.14-3.98,21.81-17.22,26.61-2.1.76-4.79,1.36-8.09,1.3Z"/>
    <path class="cls-14" d="M1237.31,995.68c11.25-4.19,22.89-1.86,34.31-1.6,6.95.16,6.06,6.57,6.06,11.4.04,37.99-.02,75.97.03,113.96,0,4.13-1.01,8.51,1.97,12.2,3.88,1.25,5.01,4.68,6.32,7.97,6.52,16.29,18.38,26.35,35.41,30.4,2.76.66,5.57,1.26,7.04,4.12,3.72,2.89,8.11,1.94,12.26,1.95,34.56.06,69.13.25,103.68-.14,8.58-.1,12.04,2.31,11.59,11.31-.6,11.96.02,23.97.12,35.97,3.18,3.04,2.87,7.03,2.88,10.88.07,35.59.08,71.18-.01,106.76,0,3.49.22,7.11-2.31,10.06-5.05,3.69-10.91,2.32-16.43,2.32-110.2.09-220.42-1.13-330.61.36-152.22,2.05-304.43.27-456.64,1.09-27.68.15-27.69-.01-27.68-27.11,0-30.39-.05-60.77.05-91.16.01-4.49-.9-9.3,2.77-13.07-.64-8.39-1.5-20.64-2.31-35.44-.85-15.45-1.54-31.97-2.05-98.31-.36-46.47-.13-52.83,5.23-62.34,14.04-24.92,41.73-34.64,47.37-35.38,16.6-2.21,33.78-3.89,50.28-2.05,20.57,2.29,45.69,1.55,95.72,2.47,29.28.53,27.77-.18,74.73.26,45.3.43,46.26,1.09,69.33,1.16,94.33.29,128.13-.12,204.62-.03,4.48,0,9.26-1.24,13.29,2.02-2.71,4.17-7.03,4.32-11.3,4.37-51.5.66-103.04,4.43-154.47,1.73-44.88-2.35-89.69-.72-134.52-1.58-19.35-.37-38.65,1.56-58,1.6-10.57.02-21.04-2.45-31.68-1.65-33.12,2.46-66.24.18-99.36-.15-25.57-.26-43.56,11.43-56.76,32.19-3.28,5.15-4.97,10.91-5.24,17.04-.18,4.24-.34,8.5-.08,12.72,1.94,31.3,1.65,62.76.95,93.96-.75,33.57,3.29,66.92,1.34,100.45-1.43,24.58,2.9,49.22.11,73.95-1.22,10.79,1.84,13.81,12.85,12.95,24.25-1.9,48.49,1.5,72.12-.79-4.96-.24-10.52.94-16.05-.31-6.58-1.49-11.55-4.82-14.61-11.08-2.67-5.46-9.43-7.36-11.87-13.26-4.09-9.89-1.45-19.37,3.69-27.3,5.15-7.93,10.24-15.92,15.4-23.85,9.92-15.25,26.63-14.47,41.75-16.14,19.23-2.13,38.58-4.23,58-.57,7.63,1.44,13.11-.75,15.79-9.75,2.87-9.65,8.86-11.52,22.5-10.54-10.84-.65-21.67-.97-32.32,2.01-3.75,1.05-7.91,3.07-11.39,1.69-14.78-5.9-30.05-1.15-44.95-2.86-6.95-.8-11.71,1.01-13.82,8.17-1.35,4.58-3.57,9.01-9.28,8.42-5.45-.56-7.77-5.26-8.21-9.81-.72-7.4-5.03-14.82-.6-22.39,5.4-3.1,11.12-.88,16.66-.88,109.57,0,219.14,0,328.72-.06,4.6,0,9.19-.12,13.6-1.76,8.01-2.97,11.84-8.43,10.77-17.16-1.09-8.84-5.15-13.04-14.35-14.05-4.92-.54-9.89-.32-14.84-.32-106.39-.01-212.78.03-319.17-.09-6.56,0-13.53,1.58-19.48-2.93-3.12-5.19,1.5-5.94,4.45-7.17,3.3-1.38,6.96-.83,10.48-.94,30.63-.9,61.27,1.26,91.95-2.81,12.57-1.67,26.13-.52,39,1.31,13.78,1.95,27.47,1.09,41.19,1.36,4.67.09,8.67-.73,11.48-5.7,6.13-10.84,13.73-13.81,24.42-6.75,17.3,11.43,30.26,5.79,42.79-11.3,6.5-8.87,16.49-8.57,22.56.68.78,1.19,1.22,2.54,1.84,3.8,7.12,14.47,5.47,17.3-9.21,17.48,6.44,1.41,13.46-1.59,20.7-2.58,5.6-.77,15.22-11.7,14.05-16.4-1.89-7.58-7.84-10.35-15.24-10.37-12-.03-24-.18-36-.16-81.91.11-163.82.08-245.73.04-3.53,0-7.16.4-10.54-.55-3.39-.95-8.12-1.33-6.41-7.14,5.37-4.9,12.04-3.35,18.22-3.36,93.54-.13,187.08-.08,280.62-.08,4.59,0,9.18.02,13.77-.01,19.77-.15,22.14-1.91,27.54-20.42,2.73-4.29,5.7-3.99,7.84.27,3.58,7.1,3.78,14.08-1.47,20.84-8.21,10.59-7.93,12.23,3.39,18.21,7.19,3.8,6.9,10.91,8.41,17,.91.68,1.81.73,2.07.01,5.45-14.97,19.6-19.16,31.82-25.71,3.1-1.66,6.14-3.27,8.98-5.48,8.06-6.26,13.97-4.11,13.59,6.09-.47,12.36,6.54,21.39,10.86,31.53,3.66,8.59,10.05,9.88,18.12,5.14,5.89-3.46,11.83-5.04,18.08-1.89,5.66,2.85,10.13.94,15.21-2.72-2.52-3.8-6.33-5.23-10.25-6.27-3.83-1.02-7.57-2.34-10.25-5.23-4.25-4.59-9.46-5.72-15.35-5.61-3.89.07-7.78-.36-11.4-2-4.21-1.91-6.8-5.05-6.76-9.85.04-4.75,2.55-7.9,6.74-9.9,2.93-1.4,6.11-1.95,9.23-2.26,8.42-.85,15.63-3.14,20-11.4,1.84-3.47,5.56-5.62,9.95-4.22,3.97,1.26,4.78,4.84,5.41,8.4.25,1.39.29,2.81.36,4.22q1.27,22.61,24.83,30.54c-8.26-20.61-16.34-40.21-31.77-55.75-1.25-1.26-2.71-2.22-4.23-3.15-4.49-2.73-12.8-2.66-11.16-10.39,1.63-7.68,3.46-16.12,11.68-20.42.94-.49,1.86-1.1,2.88-1.33,9.36-2.1,17.06-5.75,19.21-16.58.68-3.4,4.13-5.76,8.11-5.79,4.41-.03,7.77,2.41,8.79,6.39,1.69,6.55,5.75,9.78,11.81,12.16,9.48,3.73,10.19,12.51,10.87,21.21.36,4.63-2.19,11.93,3.59,13,5.93,1.1,3.77-7.1,6.39-10.42,10.87-13.77,4.26-31.83,11.51-46.55,1.54-3.14-.52-6.91-2.47-9.94-2.49-3.87-5.12-7.71-6.63-12.05-1.87-5.37-3.97-10.33-8.32-13.26-2.18-1.47-4.18-.56-6.72-2.48-2.09-1.57-3.2-3.67-3.82-5.23Z"/>
    <path class="cls-14" d="M713.31,1216.66c3.97,3.44,6.51,7.56,5.1,12.99-1.07,4.11,1.09,7.6,1.66,11.38.32,2.17,1.53,4.12,4.16,3.89,2.55-.22,3.14-2.35,3.75-4.46,4.63-15.87,5.66-16.39,21.57-13.97,3.75.57,7.71.04,11.55-.25,3.5-.26,7.51-2.23,10.37-1.1,20.84,8.28,41.43-2.93,62.11-.24,3.13.41,6.41.1,9.41.91,3.13.85,4.25,3.63,3.43,6.77-.74,2.81-2.99,3.98-5.69,3.56-2.77-.44-5.43-1.55-8.19-2.13-11.58-2.46-16.39.43-17.11,11.99-.46,7.29-3.64,8.63-9.96,8.77-8.54.19-16.83-1.83-25.24-2.1-22.97-.75-45.77,1.94-68.15,6.67-7.73,1.63-12.86,9.14-15.63,16.87-1.68,4.69-3.21,8.45-7.86,11.67-11.65,8.06-10.61,27.8,1.19,34.96,1.9,1.15,3.24,2.42,4.13,4.51,4.29,10.09,13.7,14.24,24.15,10.75,1.67-.56,3.2-1.7,4.89-1.99,4.54-.76,9.46.26,9.98,5.09.43,4.05-4.08,7.37-8.06,6.46-15.86-3.63-31.68,2.59-48.08-1.48-8.37-2.07-19.69,1.76-29.77,1.76-14.91,0-17.13-1.56-16.22-16.38,2.51-40.83.35-81.67-.85-122.4-.75-25.6-.77-51.25-.82-76.79-.05-27.07-1.5-54.14-.7-81.22.36-12.36,6.5-21.09,13.37-30.98,16.18-23.28,39.13-24.93,63.53-24.4,15.13.33,30.22-.02,45.42,1.53,14.19,1.45,28.69-2.34,43.2-1.63,18.5.91,37.19,3.28,55.5,1.66,30.37-2.69,60.68-1.39,90.98-1.41,44.07-.03,88.13,1.72,132.2,1.76,37.25.04,74.51-1.28,111.76-1.99,17.65,0,35.3-.02,52.95-.03,2.19,2.3,5.1,2.06,7.9,2.27,6.58.51,9.73,3.77,12.64,10.26,7.25,16.13,12.91,30.38,8.52,50.03-3.01,13.45-10.22,25.41-11.67,39.14-.3,2.84-3.77,6.29-8.01,5.48-3.87-.74-5.99-3.77-6.65-7.44-.55-3.1-.66-6.33-.53-9.48.46-11.28-.13-21.41-15.02-23.06-4.63-.51-6.28-5.21-6.26-9.88.02-4.02-1.56-7.26-5.85-7.35-4.51-.1-6.32,4.27-6.15,7.35.55,10.42-5.45,13.7-14.1,14.02-13.48.49-14.08,12.57-18.95,20.65-1.55,2.58,1.68,2.95,3.67,3.58,15.13,4.78,22.86,16.75,29.22,30.11,4.43,9.31,8.92,18.62,13.83,27.68,1.59,2.93,2.93,5.69,2.47,8.92-.92,6.38-3.92,8.2-9.14,3.53-5.62-5.03-11.4-9.23-19.58-9-4.88.14-5.04-4.02-5.07-7.68-.05-8.12-.04-16.25-.12-24.37-.02-2.15-.33-4.45-2.88-5.01-2.4-.53-4.56.96-5.03,2.97-3.46,14.94-16.23,13.29-26.85,15.09-4.8.81-9.52.92-9.48,7.32.04,6.19,4.65,7.43,9.48,7.59,9.73.33,18.78-.67,26.53,9.01,3.34,4.17,13.36,4.6,19.62,8.56,1.78,1.13,3.94,2.26,3.9,4.63-.04,2.72-2.55,2.83-4.56,3.42-8.05,2.36-15.67,9.71-24.45.56-2.17-2.26-6.49.24-9.52,2.56-11.13,8.51-23.09,4.95-27.18-8.13-3.55-11.34-12.48-21.29-9.09-34.52.24-.94-.87-2.87-1.84-3.33-1.97-.95-3.2.83-4.1,2.3-5,8.15-14.63,11.18-21.92,13.14-10.57,2.84-13.66,9.58-17.47,17.31-1.79,3.64-2.43,8.79-8.53,7.1-5.88-1.63-4.52-5.73-3.73-10.18.98-5.46.5-10.89-6.67-12.15-3.97-.7-9.91,1.16-10.79-4.16-.88-5.3-.88-12.85,3.59-15.78,11.23-7.36,6.99-15.89,3.99-24.81-.71-.02-1.68.18-2.07-.22-11.76-12.22-26.97-10.09-41.67-10.09-93.31,0-186.62,0-279.94.02-5.64,0-11.34-.43-16.89.95-12.31,3.05-17,14.7-10.4,25.6,2.33,3.86,6.74,6.46,7.04,11.55,4.09,3.08,8.85,1.9,13.34,1.9,95.04.07,190.07.24,285.1-.23,9.43-.05,14.97,4.32,20.74,9.93.97.94,1.76,2.29,2.12,3.59,1.37,4.88-12.05,22.74-17.19,22.78-12.82.1-25.65.03-40.9.03,8.01-5.96,14.58-3.74,20.72-4.22,5.92-.47,8.01-2.53,4.06-7.91-1.04-1.42-2.5-2.76-2.91-4.36-1.36-5.34-2.74-10.54-9.55-10.89-6.97-.36-6.76,5.45-8.73,9.89-6.09,13.73-29.59,20.19-41.99,11.59-3.55-2.46-7.06-4.24-11.22-5.45-7.3-2.12-11.95-1.17-12.05,7.58-.07,5.9-3.4,7.79-8.85,8.03-26.84,1.17-53.56-1.57-80.29-2.97-11.17-.59-21.42,3.25-32.36,3.06-23.31-.4-46.63-.17-69.95-.08-4.13.02-8.56-1.09-12.17,2.14,0,.35.17.82,0,1.04-9.83,12.66-10.39,25.81-2.18,39.46Z"/>
    <path class="cls-2" d="M490.49,1277.99c6.1-32.1,30.57-53.82,63.1-54.81,23.57-.72,47.18-.22,70.77-.26,1.25,0,2.49,0,3.74.01.07,2.97.2,7.38.39,12.72.34,9.38.37,18.77.26,28.16-1.03,84.39-1.67,72.15-1.16,78.85,0,0,.86,11.25-.56,11.46-.5.07-.75-1.65-2.1-2.48-2.98-1.84-8.46,2.89-9.46,2.9-14.14.19-28.27.18-42.41.08-26.41-.18-51.26,4.49-72.13,22.25-2.7,2.3-5.94,4.75-9.52,2.94-3.5-1.77-1.78-5.73-1.79-8.68-.12-28.64-.09-57.27-.05-85.91,0-2.43-.49-4.97.94-7.24Z"/>
    <path class="cls-15" d="M1582.86,1248.39c4.13,10.25,12.08,19.15,11.07,31.23,2.02,30.6.36,61.23.84,91.85.09,5.84-3.72,6.33-7.89,4.85-4.67-1.66-9.15-4.21-11.87-8.47-7.06-11.06-16.77-14.29-29.1-10.76-24.55-2.71-49.19-2.36-73.83-2.5-14.03-.08-15.15-1.41-15.15-15.03-.01-35.24-.03-70.48.04-105.72,0-3.46-.83-7.06.92-10.39,26.63-1.74,53.32-1.91,79.89.14,18.27,1.41,32.82,11.51,45.09,24.81Z"/>
    <path class="cls-10" d="M1328.46,1174.12c-25.39-.57-41.27-14.41-48.77-42.49.05-41.37.05-82.75.23-124.12.01-3.25-2.03-7.95,1.96-9.48,3.24-1.24,6.54,1.92,9.32,4.05,13.18,10.07,23.27,23.35,35.91,34.13,18.78,16.01,35.19,34.64,53.45,51.37,23.63,21.64,45.56,45.14,68.14,67.91,1.7,1.71,2.95,3.96,4.08,6.14,5.2,9.99,3.83,12.28-7.67,12.31-38.89.12-77.77.13-116.66.19Z"/>
    <path class="cls-6" d="M490.49,1277.99v100.7c10.05-5.48,16.92-13.56,26.4-18.19,14.4-7.02,29.46-9.52,45.01-9.93,9.52-.25,13.52-.65,56.15-.3,7.76.06,15.52.09,23.29.17,120.09,1.32,672.39-.27,672.39-.27,47.36,0,94.71-.25,142.07-.38-.07,6.01-4.68,6.24-8.83,6.68-5.26.56-10.57.33-15.87.33-101.26,0-202.52.02-303.78-.02-10.93,0-21.93-.84-31.54,6.14-2.03,1.48-4.69,1.39-7.05.02-31.11.06-62.23-.29-93.34.24-146.2,2.47-292.41,1.72-438.61,1.41-36.58-.08-71.05,23.91-79.29,61.48-.21.95-1.14,1.73-1.73,2.59-1.1-10.57,2.09-20.45,6.59-29.53,4.24-8.55,5.72-17.02,5.64-26.39-.24-27.16.04-54.32.27-81.47.04-4.49-.76-9.25,2.24-13.29Z"/>
    <path class="cls-5" d="M1088.74,1362.95c1.69-.43,4.36-.34,4.91-1.38,6.16-11.59,16.94-9.25,26.93-9.25,107.76,0,215.52.02,323.28-.05,4.06,0,8.6,1.4,11.94-2.47.11-42.2.21-84.4.32-126.6.62-.1,1.21-.03,1.78.23.03,38.82.29,77.63-.09,116.44-.08,8.36,2.38,10.97,10.74,10.81,26.08-.51,52.18-.68,78.21,1.71,1.13.1,9.9,1.75,20.75,5.97,4.57,1.78,16.11,6.6,25.03,17.31,2.12,2.55,2.65,3.69,2.28,4.27-1.3,2.03-12.76-4.12-29.41-9.6-8.26-2.72-15.29-4.44-20.24-5.52-3.72-2.95-8.12-1.9-12.26-1.9-123.89,0-247.77-.22-371.65.44-20.38.11-40.82,1.11-61.24,1.33-3.81.04-7.82.79-11.27-1.74Z"/>
    <path class="cls-6" d="M475.68,1454.14c4.26,9.7,2.47,20.16,3.09,30.17,1.47,23.88,4.68,47.72,3.28,71.74-3.46-11.27-2.42-23-3.1-34.49-1.33-22.46-4.19-44.86-3.27-67.42Z"/>
    <path class="cls-6" d="M482.03,1555.96c3.92,11.22,1.97,22.78,1.97,34.23-3.14-11.27-2.53-22.75-1.97-34.23Z"/>
    <path class="cls-6" d="M475.77,1428.63c.76,8.51.93,17.02-.08,25.52-2.28-8.51-2.79-17.02.08-25.52Z"/>
    <path class="cls-11" d="M726.08,1305.58c-13.98-1.45-21.56-6.56-23.13-16.2-2.63-16.15,7.35-26.62,21.75-26.52,90.8.58,181.61.25,272.42.24,111.3-.01,222.6-.01,333.9,0,4.95,0,9.91-.16,14.84.18,13.77.93,21.27,8.6,21.03,21.23-.23,12.51-8.14,20.23-21.76,20.94-5.29.28-10.6.1-15.9.09-196.46-.03-392.91-.06-589.37-.09-3.18,0-6.36.11-9.54.17-1.42,1.27-2.84,1.27-4.25-.02Z"/>
    <path class="cls-3" d="M713.31,1216.66c-16.01-14.02-15.33-26.7,2.17-40.5,117.01,0,234.02-.04,351.04,0,16.87,0,23.42,6.86,23.46,24.04.02,9.27-10.99,18.12-23.67,18.13-113.12.1-226.25.07-339.37-.03-4.54,0-9.08-1.07-13.62-1.64Z"/>
    <path class="cls-7" d="M717.56,1131.74c-12.32-5.92-17.47-15.47-14.6-27.08,2.43-9.86,10.66-15.4,23.64-15.41,103.86-.05,207.72.07,311.57-.17,11.54-.03,18.6,5.09,23.31,14.85-.5,22.45-5.84,27.71-28.6,27.72-105.11.06-210.21.06-315.32.09Z"/>
    <path class="cls-14" d="M726.08,1305.58c1.42,0,2.83.01,4.25.02,3.7,6.61,1.45,16.48-4.64,19.69-1.08.57-2.85.81-3.88.31-2.24-1.07-2.47-3.64-1.8-5.52,1.76-4.93,4.02-9.68,6.08-14.5Z"/>
    <path class="cls-14" d="M738.09,1339.83c7.2-5.13,14.52-4.84,21.85-4.3,1.78.13,3.45.97,3.26,3.28-.14,1.73-1.58,2.35-2.93,2.55-7.11,1.03-14.34,4.75-22.18-1.53Z"/>
    <path class="cls-14" d="M1248.04,1119.06c-.41,4.32.37,9.21-4.92,9.4-4.57.16-3.47-4.29-3.56-7.16-.12-3.88.25-8.63,4.93-8.9,4.47-.26,2.63,4.62,3.55,6.66Z"/>
    <path class="cls-14" d="M704.84,1314.64c.5-2.19-.6-5.9,3.1-5.34,3.47.53,4.39,4.22,4.8,7.34.36,2.75-1.09,5.1-3.98,5.04-4.85-.1-3.41-4.23-3.92-7.04Z"/>
    <path class="cls-14" d="M1267.04,1014.54c-2.7-5.48-3.04-9.44-.35-13.1.76-1.03,2.83-.79,3.54.68,2.09,4.32.6,7.93-3.19,12.42Z"/>
    <circle class="cls-13" cx="1444.72" cy="1966.36" r="230.61"/>
    <path class="cls-4" d="M1577.5,1900.11c-.09,9.96-2.46,18.02-8.77,24.34-43.91,44-87.69,88.15-132.03,131.73-13.39,13.16-32.31,12.78-45.7-.43-24.38-24.05-48.32-48.57-71.87-73.44-11.39-12.03-8.87-33.51,4.12-45.99,12.96-12.44,31.93-13.29,44.97-1.07,12.11,11.34,23.21,23.74,35.05,35.38,13.87,13.65,9.77,13.34,22.84.34,30.55-30.4,60.6-61.28,91.17-91.66,16.42-16.32,37.17-16.48,51.45-1.13,6.03,6.49,9.36,14.05,8.77,21.93Z"/>
    <rect class="cls-1" x="471.8" y="1362.86" width="1134.2" height="116.48" rx="58.24" ry="58.24"/>
    <rect class="cls-1" x="491.41" y="1385.61" width="431.14" height="586.5" rx="23.81" ry="23.81" transform="translate(1536.71 3300.56) rotate(175.74)"/>
  </g>
</svg>